%TF.GenerationSoftware,KiCad,Pcbnew,(5.99.0-2318-gf1aa7e523)*%
%TF.CreationDate,2020-10-19T15:18:08-05:00*%
%TF.ProjectId,micropa8,6d696372-6f70-4613-982e-6b696361645f,rev?*%
%TF.SameCoordinates,Original*%
%TF.FileFunction,Soldermask,Bot*%
%TF.FilePolarity,Negative*%
%FSLAX46Y46*%
G04 Gerber Fmt 4.6, Leading zero omitted, Abs format (unit mm)*
G04 Created by KiCad (PCBNEW (5.99.0-2318-gf1aa7e523)) date 2020-10-19 15:18:08*
%MOMM*%
%LPD*%
G01*
G04 APERTURE LIST*
%ADD10C,1.752600*%
%ADD11R,1.752600X1.752600*%
%ADD12C,1.700000*%
%ADD13C,4.000000*%
%ADD14C,2.200000*%
%ADD15C,1.600000*%
%ADD16R,1.600000X1.600000*%
%ADD17R,1.200000X1.200000*%
%ADD18C,2.000000*%
%ADD19R,2.000000X3.200000*%
%ADD20R,2.000000X2.000000*%
%ADD21C,3.050000*%
%ADD22R,0.998220X0.698500*%
G04 APERTURE END LIST*
%TO.C,G\u002A\u002A\u002A*%
G36*
X114818371Y-52232585D02*
G01*
X114837238Y-52246878D01*
X114855387Y-52273051D01*
X114872610Y-52310945D01*
X114892303Y-52361285D01*
X114910970Y-52405731D01*
X114929806Y-52446447D01*
X114950508Y-52486919D01*
X114974778Y-52530631D01*
X115004314Y-52581068D01*
X115043166Y-52647847D01*
X115085120Y-52725010D01*
X115119728Y-52795803D01*
X115147512Y-52861790D01*
X115168993Y-52924533D01*
X115184693Y-52985597D01*
X115195135Y-53046546D01*
X115200840Y-53108943D01*
X115202330Y-53174353D01*
X115202199Y-53187552D01*
X115200478Y-53242972D01*
X115196561Y-53294805D01*
X115190003Y-53345157D01*
X115180358Y-53396135D01*
X115167180Y-53449845D01*
X115150024Y-53508394D01*
X115128443Y-53573889D01*
X115101992Y-53648435D01*
X115083414Y-53700132D01*
X115065918Y-53751228D01*
X115052241Y-53795316D01*
X115041918Y-53834773D01*
X115034484Y-53871975D01*
X115029476Y-53909296D01*
X115026431Y-53949114D01*
X115024882Y-53993803D01*
X115024367Y-54045739D01*
X115024370Y-54077690D01*
X115024852Y-54121515D01*
X115026040Y-54156748D01*
X115028070Y-54185722D01*
X115031075Y-54210772D01*
X115035190Y-54234231D01*
X115045196Y-54279026D01*
X115060140Y-54336761D01*
X115077613Y-54397357D01*
X115096311Y-54456313D01*
X115114928Y-54509132D01*
X115120781Y-54524933D01*
X115134235Y-54562560D01*
X115147531Y-54601202D01*
X115158495Y-54634597D01*
X115177621Y-54695061D01*
X115160849Y-54838467D01*
X115154599Y-54889608D01*
X115148361Y-54933991D01*
X115142227Y-54968675D01*
X115135786Y-54995019D01*
X115128625Y-55014386D01*
X115120335Y-55028138D01*
X115110505Y-55037635D01*
X115098722Y-55044241D01*
X115085835Y-55049832D01*
X115077029Y-55051986D01*
X115068330Y-55049766D01*
X115053968Y-55043013D01*
X115043854Y-55036986D01*
X115028793Y-55022240D01*
X115014399Y-54999916D01*
X114999751Y-54968479D01*
X114983926Y-54926396D01*
X114981208Y-54918753D01*
X114967413Y-54883731D01*
X114950545Y-54846796D01*
X114929866Y-54806628D01*
X114904640Y-54761910D01*
X114874129Y-54711321D01*
X114837595Y-54653544D01*
X114794301Y-54587259D01*
X114776629Y-54560499D01*
X114747635Y-54516341D01*
X114724109Y-54479924D01*
X114705118Y-54449591D01*
X114689734Y-54423685D01*
X114677023Y-54400550D01*
X114666056Y-54378530D01*
X114655901Y-54355967D01*
X114645627Y-54331205D01*
X114634303Y-54302587D01*
X114619062Y-54262463D01*
X114601095Y-54210060D01*
X114588195Y-54163936D01*
X114579755Y-54121415D01*
X114575165Y-54079819D01*
X114573817Y-54036469D01*
X114573859Y-54029059D01*
X114575338Y-53987427D01*
X114579162Y-53945318D01*
X114585663Y-53901380D01*
X114595172Y-53854258D01*
X114608021Y-53802600D01*
X114624542Y-53745051D01*
X114645066Y-53680258D01*
X114669925Y-53606867D01*
X114699450Y-53523525D01*
X114701692Y-53517296D01*
X114730163Y-53437312D01*
X114754261Y-53367716D01*
X114774267Y-53307525D01*
X114790463Y-53255755D01*
X114803131Y-53211426D01*
X114812553Y-53173553D01*
X114819011Y-53141155D01*
X114822787Y-53113248D01*
X114824162Y-53088851D01*
X114823008Y-53070610D01*
X114819150Y-53042750D01*
X114813180Y-53010163D01*
X114805712Y-52976591D01*
X114800266Y-52954120D01*
X114785192Y-52890140D01*
X114771344Y-52828758D01*
X114759116Y-52771843D01*
X114748902Y-52721262D01*
X114741097Y-52678885D01*
X114736094Y-52646579D01*
X114734583Y-52633615D01*
X114731568Y-52590730D01*
X114730742Y-52543761D01*
X114731910Y-52494534D01*
X114734877Y-52444875D01*
X114739446Y-52396611D01*
X114745424Y-52351569D01*
X114752616Y-52311573D01*
X114760825Y-52278451D01*
X114769857Y-52254029D01*
X114779517Y-52240134D01*
X114798999Y-52230334D01*
X114818371Y-52232585D01*
G37*
G36*
X112978627Y-52233470D02*
G01*
X112989832Y-52245238D01*
X112999992Y-52267276D01*
X113009374Y-52300279D01*
X113018244Y-52344944D01*
X113022315Y-52368041D01*
X113026892Y-52391666D01*
X113031912Y-52414080D01*
X113037881Y-52436874D01*
X113045306Y-52461637D01*
X113054693Y-52489962D01*
X113066549Y-52523438D01*
X113081381Y-52563656D01*
X113099695Y-52612206D01*
X113121998Y-52670679D01*
X113122073Y-52670873D01*
X113146803Y-52736163D01*
X113167213Y-52791706D01*
X113183766Y-52839144D01*
X113196929Y-52880120D01*
X113207167Y-52916279D01*
X113214945Y-52949261D01*
X113220729Y-52980712D01*
X113224983Y-53012273D01*
X113228173Y-53045588D01*
X113230490Y-53087267D01*
X113230117Y-53135005D01*
X113226040Y-53182776D01*
X113217887Y-53232092D01*
X113205287Y-53284469D01*
X113187866Y-53341419D01*
X113165252Y-53404457D01*
X113137074Y-53475095D01*
X113102959Y-53554849D01*
X113100590Y-53560259D01*
X113072423Y-53626124D01*
X113049637Y-53683101D01*
X113031734Y-53733020D01*
X113018217Y-53777706D01*
X113008590Y-53818987D01*
X113002355Y-53858691D01*
X112999017Y-53898646D01*
X112998078Y-53940679D01*
X112998218Y-53954343D01*
X113001418Y-54012763D01*
X113009140Y-54071751D01*
X113021794Y-54132641D01*
X113039788Y-54196768D01*
X113063533Y-54265466D01*
X113093437Y-54340069D01*
X113129909Y-54421914D01*
X113173359Y-54512333D01*
X113190814Y-54547915D01*
X113210279Y-54588309D01*
X113227804Y-54625430D01*
X113242485Y-54657336D01*
X113253419Y-54682085D01*
X113259700Y-54697735D01*
X113263645Y-54709895D01*
X113270991Y-54741019D01*
X113275125Y-54775755D01*
X113276136Y-54816206D01*
X113274110Y-54864475D01*
X113269136Y-54922667D01*
X113267606Y-54937682D01*
X113263421Y-54975296D01*
X113259466Y-55003328D01*
X113255250Y-55023836D01*
X113250279Y-55038880D01*
X113244061Y-55050519D01*
X113236104Y-55060812D01*
X113224318Y-55068270D01*
X113203171Y-55071628D01*
X113200342Y-55071562D01*
X113184158Y-55067924D01*
X113169470Y-55057740D01*
X113155160Y-55039648D01*
X113140108Y-55012285D01*
X113123194Y-54974289D01*
X113109295Y-54942646D01*
X113092769Y-54908816D01*
X113073436Y-54872912D01*
X113050612Y-54833836D01*
X113023612Y-54790492D01*
X112991753Y-54741784D01*
X112954350Y-54686614D01*
X112910721Y-54623886D01*
X112860181Y-54552503D01*
X112840802Y-54525173D01*
X112801542Y-54468603D01*
X112768282Y-54418599D01*
X112739741Y-54373080D01*
X112714641Y-54329964D01*
X112691702Y-54287171D01*
X112669644Y-54242619D01*
X112646237Y-54190680D01*
X112616626Y-54110899D01*
X112597012Y-54035014D01*
X112587108Y-53961364D01*
X112586626Y-53888289D01*
X112595278Y-53814132D01*
X112595699Y-53811759D01*
X112607762Y-53759139D01*
X112626838Y-53696381D01*
X112652914Y-53623516D01*
X112685980Y-53540574D01*
X112726025Y-53447587D01*
X112739496Y-53417136D01*
X112765788Y-53356731D01*
X112787696Y-53304723D01*
X112805955Y-53259250D01*
X112821302Y-53218454D01*
X112834470Y-53180475D01*
X112846195Y-53143452D01*
X112853212Y-53116100D01*
X112858317Y-53081484D01*
X112859512Y-53043690D01*
X112856739Y-53000600D01*
X112849938Y-52950099D01*
X112839048Y-52890070D01*
X112837935Y-52884401D01*
X112826937Y-52821815D01*
X112820363Y-52767465D01*
X112818203Y-52718304D01*
X112820449Y-52671285D01*
X112827091Y-52623360D01*
X112838122Y-52571482D01*
X112845909Y-52538580D01*
X112854997Y-52499003D01*
X112863375Y-52461402D01*
X112869910Y-52430787D01*
X112874818Y-52407962D01*
X112889466Y-52350633D01*
X112905147Y-52304063D01*
X112921694Y-52268573D01*
X112938937Y-52244483D01*
X112956709Y-52232112D01*
X112974841Y-52231780D01*
X112978627Y-52233470D01*
G37*
G36*
X113855007Y-52017577D02*
G01*
X113866446Y-52024488D01*
X113876293Y-52037515D01*
X113884985Y-52057904D01*
X113892963Y-52086900D01*
X113900664Y-52125749D01*
X113908529Y-52175698D01*
X113913232Y-52206690D01*
X113918344Y-52235241D01*
X113924290Y-52261227D01*
X113931751Y-52286299D01*
X113941410Y-52312108D01*
X113953946Y-52340306D01*
X113970042Y-52372543D01*
X113990379Y-52410470D01*
X114015638Y-52455738D01*
X114046500Y-52509997D01*
X114060031Y-52534162D01*
X114082092Y-52574940D01*
X114105844Y-52620112D01*
X114129205Y-52665708D01*
X114150096Y-52707759D01*
X114153341Y-52714448D01*
X114190109Y-52794415D01*
X114219208Y-52866722D01*
X114241083Y-52932886D01*
X114256176Y-52994421D01*
X114264932Y-53052842D01*
X114267794Y-53109667D01*
X114267463Y-53136260D01*
X114265522Y-53172022D01*
X114261441Y-53206838D01*
X114254762Y-53242437D01*
X114245030Y-53280546D01*
X114231786Y-53322892D01*
X114214573Y-53371202D01*
X114192934Y-53427204D01*
X114166412Y-53492625D01*
X114154401Y-53521882D01*
X114136598Y-53565559D01*
X114119759Y-53607214D01*
X114104828Y-53644500D01*
X114092748Y-53675067D01*
X114084463Y-53696567D01*
X114066593Y-53747304D01*
X114036766Y-53854807D01*
X114018768Y-53960112D01*
X114012491Y-54063770D01*
X114012595Y-54092159D01*
X114013673Y-54125713D01*
X114016233Y-54156811D01*
X114020722Y-54187171D01*
X114027588Y-54218507D01*
X114037278Y-54252537D01*
X114050240Y-54290977D01*
X114066923Y-54335543D01*
X114087774Y-54387952D01*
X114113240Y-54449920D01*
X114128459Y-54486843D01*
X114155668Y-54554609D01*
X114177980Y-54613442D01*
X114195711Y-54664815D01*
X114209177Y-54710205D01*
X114218694Y-54751088D01*
X114224577Y-54788939D01*
X114227144Y-54825234D01*
X114226710Y-54861448D01*
X114223592Y-54899058D01*
X114218104Y-54939539D01*
X114210110Y-54986125D01*
X114201763Y-55023321D01*
X114192911Y-55050687D01*
X114183136Y-55069507D01*
X114172021Y-55081064D01*
X114169321Y-55082670D01*
X114152894Y-55088012D01*
X114133137Y-55090168D01*
X114126100Y-55089828D01*
X114105959Y-55083648D01*
X114089347Y-55068767D01*
X114075217Y-55043966D01*
X114062522Y-55008029D01*
X114054693Y-54983538D01*
X114041389Y-54949194D01*
X114024678Y-54913762D01*
X114003750Y-54875891D01*
X113977796Y-54834231D01*
X113946006Y-54787432D01*
X113907570Y-54734143D01*
X113861679Y-54673014D01*
X113790258Y-54575750D01*
X113727377Y-54482287D01*
X113674404Y-54394236D01*
X113631042Y-54311032D01*
X113596998Y-54232108D01*
X113571976Y-54156896D01*
X113555681Y-54084829D01*
X113552383Y-54056828D01*
X113550691Y-54012827D01*
X113551785Y-53961228D01*
X113554306Y-53924631D01*
X113560302Y-53877191D01*
X113569801Y-53828609D01*
X113583276Y-53777309D01*
X113601203Y-53721712D01*
X113624055Y-53660241D01*
X113652306Y-53591320D01*
X113686431Y-53513371D01*
X113708350Y-53464189D01*
X113739414Y-53393044D01*
X113765468Y-53331184D01*
X113786896Y-53277548D01*
X113804083Y-53231077D01*
X113817414Y-53190711D01*
X113827274Y-53155389D01*
X113834049Y-53124052D01*
X113838122Y-53095640D01*
X113839023Y-53081080D01*
X113837570Y-53041952D01*
X113831472Y-52992001D01*
X113820704Y-52931081D01*
X113805242Y-52859043D01*
X113785060Y-52775739D01*
X113782897Y-52767197D01*
X113768209Y-52708577D01*
X113756348Y-52659789D01*
X113746943Y-52618979D01*
X113739624Y-52584298D01*
X113734021Y-52553894D01*
X113729762Y-52525915D01*
X113726476Y-52498510D01*
X113723793Y-52469827D01*
X113722369Y-52450823D01*
X113720621Y-52397098D01*
X113723051Y-52346361D01*
X113730082Y-52295147D01*
X113742141Y-52239990D01*
X113759653Y-52177426D01*
X113768047Y-52150077D01*
X113778562Y-52116969D01*
X113787941Y-52088674D01*
X113795402Y-52067540D01*
X113800162Y-52055916D01*
X113806130Y-52046099D01*
X113821326Y-52029309D01*
X113837912Y-52018727D01*
X113852556Y-52016837D01*
X113855007Y-52017577D01*
G37*
G36*
X115930043Y-57192900D02*
G01*
X115908227Y-57234722D01*
X115855665Y-57325453D01*
X115799508Y-57408122D01*
X115737619Y-57485733D01*
X115667857Y-57561293D01*
X115657728Y-57571512D01*
X115634423Y-57594391D01*
X115611566Y-57615675D01*
X115587810Y-57636411D01*
X115561809Y-57657650D01*
X115532216Y-57680440D01*
X115497685Y-57705830D01*
X115456869Y-57734868D01*
X115408421Y-57768604D01*
X115350995Y-57808086D01*
X115319908Y-57829430D01*
X115269295Y-57864567D01*
X115227194Y-57894518D01*
X115192399Y-57920291D01*
X115163705Y-57942897D01*
X115139907Y-57963343D01*
X115119800Y-57982639D01*
X115102180Y-58001794D01*
X115085840Y-58021817D01*
X115069577Y-58043716D01*
X115059886Y-58056834D01*
X115037934Y-58083977D01*
X115017546Y-58105927D01*
X115001136Y-58119991D01*
X114995934Y-58123454D01*
X114979267Y-58132597D01*
X114963945Y-58135729D01*
X114943549Y-58134464D01*
X114939655Y-58134226D01*
X114923380Y-58133800D01*
X114895893Y-58133390D01*
X114857934Y-58132999D01*
X114810247Y-58132630D01*
X114753571Y-58132286D01*
X114688648Y-58131970D01*
X114616221Y-58131685D01*
X114537030Y-58131434D01*
X114451817Y-58131221D01*
X114361323Y-58131049D01*
X114266291Y-58130920D01*
X114167461Y-58130838D01*
X114065574Y-58130805D01*
X113218500Y-58130752D01*
X113204751Y-58097580D01*
X113201216Y-58089395D01*
X113189848Y-58067420D01*
X113175801Y-58047132D01*
X113157855Y-58027549D01*
X113134792Y-58007686D01*
X113105391Y-57986560D01*
X113068434Y-57963187D01*
X113022701Y-57936584D01*
X112966973Y-57905767D01*
X112941071Y-57891544D01*
X112908285Y-57873169D01*
X112879062Y-57856390D01*
X112855849Y-57842616D01*
X112841093Y-57833256D01*
X112834541Y-57828624D01*
X112796723Y-57797879D01*
X112754422Y-57757452D01*
X112708697Y-57708408D01*
X112660605Y-57651810D01*
X112660228Y-57651347D01*
X112606170Y-57586877D01*
X112556697Y-57532085D01*
X112510413Y-57485845D01*
X112465920Y-57447031D01*
X112421821Y-57414518D01*
X112376718Y-57387180D01*
X112329215Y-57363892D01*
X112277914Y-57343528D01*
X112260132Y-57338014D01*
X112234117Y-57331722D01*
X112200122Y-57324939D01*
X112157068Y-57317467D01*
X112103879Y-57309107D01*
X112039474Y-57299662D01*
X112020180Y-57296888D01*
X111971468Y-57289731D01*
X111925745Y-57282806D01*
X111884861Y-57276406D01*
X111850668Y-57270823D01*
X111825016Y-57266352D01*
X111809756Y-57263284D01*
X111784183Y-57256246D01*
X111741820Y-57241833D01*
X111690743Y-57221756D01*
X111630334Y-57195769D01*
X111559973Y-57163623D01*
X111528165Y-57148729D01*
X111480426Y-57126149D01*
X111441596Y-57107289D01*
X111410185Y-57091255D01*
X111384703Y-57077157D01*
X111363659Y-57064102D01*
X111345563Y-57051199D01*
X111328924Y-57037555D01*
X111312253Y-57022279D01*
X111294059Y-57004479D01*
X111237024Y-56942772D01*
X111169835Y-56855079D01*
X111111175Y-56760399D01*
X111061554Y-56660100D01*
X111021478Y-56555551D01*
X110991455Y-56448121D01*
X110971993Y-56339179D01*
X110967641Y-56282614D01*
X111215762Y-56282614D01*
X111226441Y-56364246D01*
X111248993Y-56445141D01*
X111283157Y-56524421D01*
X111328674Y-56601210D01*
X111337223Y-56613694D01*
X111354432Y-56637835D01*
X111371144Y-56659385D01*
X111389699Y-56681146D01*
X111412437Y-56705918D01*
X111441699Y-56736503D01*
X111504174Y-56795668D01*
X111589180Y-56862506D01*
X111681359Y-56921800D01*
X111778885Y-56972619D01*
X111879931Y-57014031D01*
X111982671Y-57045102D01*
X112085277Y-57064903D01*
X112103785Y-57067292D01*
X112133320Y-57070630D01*
X112158677Y-57072946D01*
X112175833Y-57073843D01*
X112201498Y-57073963D01*
X112164504Y-56965075D01*
X112160767Y-56954000D01*
X112141862Y-56895381D01*
X112124094Y-56835427D01*
X112107091Y-56772576D01*
X112090481Y-56705265D01*
X112073892Y-56631931D01*
X112056953Y-56551012D01*
X112039292Y-56460945D01*
X112020536Y-56360168D01*
X112018259Y-56347679D01*
X112007091Y-56286799D01*
X111995748Y-56225510D01*
X111984624Y-56165908D01*
X111974113Y-56110087D01*
X111964610Y-56060145D01*
X111956509Y-56018175D01*
X111950203Y-55986275D01*
X111927150Y-55871944D01*
X111865617Y-55867755D01*
X111854817Y-55866906D01*
X111822471Y-55863609D01*
X111783596Y-55858893D01*
X111742156Y-55853256D01*
X111702114Y-55847197D01*
X111671002Y-55842582D01*
X111614440Y-55835706D01*
X111557924Y-55830496D01*
X111507442Y-55827554D01*
X111414741Y-55824282D01*
X111383133Y-55857383D01*
X111378060Y-55862742D01*
X111322497Y-55929014D01*
X111278865Y-55996991D01*
X111246790Y-56067477D01*
X111225902Y-56141275D01*
X111215829Y-56219190D01*
X111215762Y-56282614D01*
X110967641Y-56282614D01*
X110963600Y-56230095D01*
X110966784Y-56122236D01*
X110975278Y-56051740D01*
X110994423Y-55962192D01*
X111022241Y-55881414D01*
X111058790Y-55809327D01*
X111104130Y-55745852D01*
X111158319Y-55690910D01*
X111221416Y-55644422D01*
X111293481Y-55606310D01*
X111374571Y-55576495D01*
X111379335Y-55575073D01*
X111421041Y-55563584D01*
X111458170Y-55555668D01*
X111494941Y-55550741D01*
X111535572Y-55548222D01*
X111584283Y-55547528D01*
X111633018Y-55548550D01*
X111704975Y-55554168D01*
X111778595Y-55565185D01*
X111858298Y-55582157D01*
X111882027Y-55587518D01*
X111905469Y-55592082D01*
X111922111Y-55594462D01*
X111929366Y-55594221D01*
X111931500Y-55587752D01*
X111932774Y-55570675D01*
X111932636Y-55545893D01*
X111931170Y-55515919D01*
X111928460Y-55483268D01*
X111924589Y-55450452D01*
X111920168Y-55407639D01*
X111920029Y-55369691D01*
X111924893Y-55342304D01*
X111934729Y-55325862D01*
X111935839Y-55325180D01*
X111938533Y-55324310D01*
X111942951Y-55323496D01*
X111949470Y-55322737D01*
X111958472Y-55322031D01*
X111970337Y-55321376D01*
X111985443Y-55320773D01*
X112004171Y-55320218D01*
X112026902Y-55319710D01*
X112054014Y-55319249D01*
X112085888Y-55318832D01*
X112122903Y-55318457D01*
X112165440Y-55318125D01*
X112213879Y-55317832D01*
X112268599Y-55317577D01*
X112329981Y-55317360D01*
X112398404Y-55317178D01*
X112474248Y-55317030D01*
X112557893Y-55316915D01*
X112649719Y-55316830D01*
X112750106Y-55316775D01*
X112859434Y-55316748D01*
X112978083Y-55316748D01*
X113106432Y-55316772D01*
X113244862Y-55316820D01*
X113393752Y-55316891D01*
X113553483Y-55316981D01*
X113724434Y-55317091D01*
X113906986Y-55317219D01*
X114101518Y-55317362D01*
X116256810Y-55318985D01*
X116256802Y-55397703D01*
X116256695Y-55417427D01*
X116255334Y-55479835D01*
X116252532Y-55551740D01*
X116248444Y-55631117D01*
X116243226Y-55715942D01*
X116237033Y-55804190D01*
X116230020Y-55893837D01*
X116222344Y-55982857D01*
X116214160Y-56069227D01*
X116205623Y-56150922D01*
X116196889Y-56225917D01*
X116188112Y-56292187D01*
X116167278Y-56425267D01*
X116138847Y-56574730D01*
X116106363Y-56714218D01*
X116069534Y-56844757D01*
X116028066Y-56967368D01*
X115985320Y-57073963D01*
X115981667Y-57083075D01*
X115930043Y-57192900D01*
G37*
%TD*%
D10*
%TO.C,U1*%
X28892500Y-25717500D03*
X56832500Y-40957500D03*
X31432500Y-25717500D03*
X33972500Y-25717500D03*
X36512500Y-25717500D03*
X39052500Y-25717500D03*
X41592500Y-25717500D03*
X44132500Y-25717500D03*
X46672500Y-25717500D03*
X49212500Y-25717500D03*
X51752500Y-25717500D03*
X54292500Y-25717500D03*
X56832500Y-25717500D03*
X54292500Y-40957500D03*
X51752500Y-40957500D03*
X49212500Y-40957500D03*
X46672500Y-40957500D03*
X44132500Y-40957500D03*
X41592500Y-40957500D03*
X39052500Y-40957500D03*
X36512500Y-40957500D03*
X33972500Y-40957500D03*
X31432500Y-40957500D03*
D11*
X28892500Y-40957500D03*
%TD*%
D12*
%TO.C,MX5*%
X59055000Y-52387500D03*
X48895000Y-52387500D03*
D13*
X53975000Y-52387500D03*
D14*
X50165000Y-49847500D03*
X56515000Y-47307500D03*
%TD*%
D15*
%TO.C,D8*%
X42056250Y-46912500D03*
D16*
X42056250Y-54712500D03*
D17*
X42056250Y-52387500D03*
X42056250Y-49237500D03*
%TD*%
D15*
%TO.C,D7*%
X100806250Y-50868750D03*
D16*
X100806250Y-58668750D03*
D17*
X100806250Y-56343750D03*
X100806250Y-53193750D03*
%TD*%
D15*
%TO.C,D6*%
X81756250Y-50868750D03*
D16*
X81756250Y-58668750D03*
D17*
X81756250Y-56343750D03*
X81756250Y-53193750D03*
%TD*%
D15*
%TO.C,D5*%
X62706250Y-50868750D03*
D16*
X62706250Y-58668750D03*
D17*
X62706250Y-56343750D03*
X62706250Y-53193750D03*
%TD*%
D15*
%TO.C,D4*%
X99218750Y-31818750D03*
D16*
X99218750Y-39618750D03*
D17*
X99218750Y-37293750D03*
X99218750Y-34143750D03*
%TD*%
D15*
%TO.C,D3*%
X96043750Y-31818750D03*
D16*
X96043750Y-39618750D03*
D17*
X96043750Y-37293750D03*
X96043750Y-34143750D03*
%TD*%
D15*
%TO.C,D2*%
X76993750Y-31818750D03*
D16*
X76993750Y-39618750D03*
D17*
X76993750Y-37293750D03*
X76993750Y-34143750D03*
%TD*%
D15*
%TO.C,D1*%
X60520000Y-31685000D03*
D16*
X60520000Y-39485000D03*
D17*
X60520000Y-37160000D03*
X60520000Y-34010000D03*
%TD*%
D18*
%TO.C,SW3-1*%
X35043750Y-44593750D03*
X30043750Y-44593750D03*
D19*
X38143750Y-51593750D03*
X26943750Y-51593750D03*
D18*
X35043750Y-59093750D03*
X32543750Y-59093750D03*
D20*
X30043750Y-59093750D03*
%TD*%
D21*
%TO.C,MX4*%
X106506250Y-30962500D03*
X106506250Y-54762500D03*
D13*
X121746250Y-54762500D03*
X121746250Y-30962500D03*
D12*
X118586250Y-42862500D03*
X108426250Y-42862500D03*
D13*
X113506250Y-42862500D03*
D14*
X109696250Y-40322500D03*
X116046250Y-37782500D03*
%TD*%
D22*
%TO.C,SW1*%
X110681770Y-30685740D03*
X116681250Y-30685740D03*
X110681770Y-26987500D03*
X116681250Y-26987500D03*
%TD*%
D12*
%TO.C,MX7*%
X97155000Y-52387500D03*
X86995000Y-52387500D03*
D13*
X92075000Y-52387500D03*
D14*
X88265000Y-49847500D03*
X94615000Y-47307500D03*
%TD*%
D12*
%TO.C,MX6*%
X78105000Y-52387500D03*
X67945000Y-52387500D03*
D13*
X73025000Y-52387500D03*
D14*
X69215000Y-49847500D03*
X75565000Y-47307500D03*
%TD*%
D12*
%TO.C,MX3*%
X92392500Y-33337500D03*
X82232500Y-33337500D03*
D13*
X87312500Y-33337500D03*
D14*
X83502500Y-30797500D03*
X89852500Y-28257500D03*
%TD*%
D12*
%TO.C,MX2*%
X73342500Y-33337500D03*
X63182500Y-33337500D03*
D13*
X68262500Y-33337500D03*
D14*
X64452500Y-30797500D03*
X70802500Y-28257500D03*
%TD*%
D12*
%TO.C,MX1*%
X54292500Y-33337500D03*
X44132500Y-33337500D03*
D13*
X49212500Y-33337500D03*
D14*
X45402500Y-30797500D03*
X51752500Y-28257500D03*
%TD*%
M02*
