M48
; DRILL file {KiCad (5.99.0-2318-gf1aa7e523)} date Monday, October 19, 2020 at 03:18:10 PM
; FORMAT={-:-/ absolute / inch / decimal}
; #@! TF.CreationDate,2020-10-19T15:18:10-05:00
; #@! TF.GenerationSoftware,Kicad,Pcbnew,(5.99.0-2318-gf1aa7e523)
FMAT,2
INCH
T1C0.0157
T2C0.0276
T3C0.0394
T4C0.0430
T5C0.0591
T6C0.0669
T7C0.1201
T8C0.1575
%
G90
G05
T1
X1.4862Y-1.4709
X1.4917Y-1.1543
X3.2291Y-1.4461
X4.1Y-1.9102
X4.1142Y-1.5264
X4.3516Y-1.289
T2
X1.6558Y-1.8469
X1.6558Y-2.154
X3.9688Y-2.0027
X3.9688Y-2.3098
X2.4688Y-2.0027
X2.4688Y-2.3098
X3.2188Y-2.0027
X3.2188Y-2.3098
X2.3827Y-1.2474
X2.3827Y-1.5545
X3.7812Y-1.2527
X3.7812Y-1.5598
X3.9062Y-1.2527
X3.9062Y-1.5598
X3.0312Y-1.2527
X3.0312Y-1.5598
T3
X1.1828Y-1.7557
X1.1828Y-2.3265
X1.2812Y-2.3265
X1.3797Y-1.7557
X1.3797Y-2.3265
T4
X1.1375Y-1.0125
X1.1375Y-1.6125
X1.2375Y-1.0125
X1.2375Y-1.6125
X1.3375Y-1.0125
X1.3375Y-1.6125
X1.4375Y-1.0125
X1.4375Y-1.6125
X1.5375Y-1.0125
X1.5375Y-1.6125
X1.6375Y-1.0125
X1.6375Y-1.6125
X1.7375Y-1.0125
X1.7375Y-1.6125
X1.8375Y-1.0125
X1.8375Y-1.6125
X1.9375Y-1.0125
X1.9375Y-1.6125
X2.0375Y-1.0125
X2.0375Y-1.6125
X2.1375Y-1.0125
X2.1375Y-1.6125
X2.2375Y-1.0125
X2.2375Y-1.6125
T5
X1.975Y-1.9625
X2.225Y-1.8625
X2.725Y-1.9625
X2.975Y-1.8625
X3.2875Y-1.2125
X3.5375Y-1.1125
X3.475Y-1.9625
X3.725Y-1.8625
X1.7875Y-1.2125
X2.0375Y-1.1125
X4.3187Y-1.5875
X4.5687Y-1.4875
X2.5375Y-1.2125
X2.7875Y-1.1125
T6
X4.2687Y-1.6875
X4.6688Y-1.6875
X2.4875Y-1.3125
X2.8875Y-1.3125
X1.925Y-2.0625
X2.325Y-2.0625
X2.675Y-2.0625
X3.075Y-2.0625
X3.2375Y-1.3125
X3.6375Y-1.3125
X3.425Y-2.0625
X3.825Y-2.0625
X1.7375Y-1.3125
X2.1375Y-1.3125
T7
X4.1932Y-1.219
X4.1932Y-2.156
T8
X2.125Y-2.0625
X2.875Y-2.0625
X3.4375Y-1.3125
X3.625Y-2.0625
X1.9375Y-1.3125
X4.4688Y-1.6875
X4.7932Y-1.219
X4.7932Y-2.156
X2.6875Y-1.3125
T5
G00X1.0608Y-2.0568
M15
G01X1.0608Y-2.0057
M16
G05
G00X1.5017Y-2.0568
M15
G01X1.5017Y-2.0057
M16
G05
T0
M30
